<svg width="77" height="87" viewBox="0 0 77 87" fill="none" xmlns="http://www.w3.org/2000/svg">
<rect x="0.119141" y="0.432617" width="76.5" height="86" rx="10" fill="white"/>
<g clip-path="url(#clip0_0_152)">
<path d="M38.3686 27.1603C38.3686 27.1603 37.5696 20.2485 29.0801 16.9326V27.1603H38.3686Z" fill="#F0F5FA"/>
<path d="M38.3691 27.1603C38.3691 27.1603 39.1682 20.2485 47.6577 16.9326V27.1603H38.3691Z" fill="#E4ECF2"/>
<path d="M38.471 27.1604C34.7641 20.537 25.8831 18.5018 25.8831 18.5018L24.1191 20.2942L36.3256 28.4144L38.471 27.1604Z" fill="#E4ECF2"/>
<path d="M38.2656 27.1604C41.9725 20.537 50.8536 18.5018 50.8536 18.5018L52.6175 20.2942L40.411 28.4145L38.2656 27.1604Z" fill="#F0F5FA"/>
<path d="M53.944 41.3908L41.496 48.3928C41.0668 48.6343 40.5364 48.3241 40.5364 47.8316L39.8926 37.6005L40.5364 27.5367C40.5364 27.3041 40.6619 27.0896 40.8646 26.9755L53.3126 19.9735C53.7418 19.7321 54.2722 20.0422 54.2722 20.5347V40.8295C54.2722 41.0622 54.1467 41.2768 53.944 41.3908Z" fill="#15C69B"/>
<path d="M53.3113 19.9737L51.6954 20.8826V40.8296C51.6954 41.0622 51.5699 41.2768 51.3673 41.3908L40.5352 47.4839V47.8316C40.5352 48.324 41.0655 48.6342 41.4947 48.3928L53.9427 41.3908C54.1455 41.2768 54.2709 41.0622 54.2709 40.8296V20.5348C54.2709 20.0424 53.7405 19.7322 53.3113 19.9737Z" fill="#1AA483"/>
<path d="M35.2411 48.3929L22.793 41.3909C22.5903 41.2768 22.4648 41.0623 22.4648 40.8297V20.5348C22.4648 20.0424 22.9952 19.7323 23.4244 19.9736L35.8724 26.9757C36.0751 27.0897 36.2006 27.3042 36.2006 27.5368V47.8317C36.2006 48.3242 35.6703 48.6343 35.2411 48.3929Z" fill="#15C69B"/>
<path d="M35.8724 26.9757L23.4244 19.9737C22.9952 19.7323 22.4648 20.0424 22.4648 20.5348V20.8827L33.2969 26.9757C33.4997 27.0898 33.6251 27.3043 33.6251 27.5369V47.4839L35.241 48.3929C35.6702 48.6343 36.2006 48.3242 36.2006 47.8317L36.8444 37.6328L36.2006 27.5369C36.2006 27.3043 36.0751 27.0898 35.8724 26.9757Z" fill="#1AA483"/>
<path d="M51.911 28.4147L42.8966 33.5656V30.4525L51.911 25.3016V28.4147Z" fill="white"/>
<path d="M39.8927 48.9326H36.8451C36.4895 48.9326 36.2012 48.6443 36.2012 48.2887V27.8041C36.2012 27.4485 36.4895 27.1603 36.8451 27.1603H39.8927C40.2483 27.1603 40.5366 27.4485 40.5366 27.8041V48.2887C40.5366 48.6443 40.2483 48.9326 39.8927 48.9326Z" fill="#15C69B"/>
<path d="M39.8923 27.1603H37.7031C38.0587 27.1603 38.347 27.4485 38.347 27.8041V48.2887C38.347 48.6443 38.0587 48.9326 37.7031 48.9326H39.8923C40.2479 48.9326 40.5361 48.6443 40.5361 48.2887V27.8041C40.5361 27.4485 40.2479 27.1603 39.8923 27.1603Z" fill="#1AA483"/>
<path d="M36.2012 29.4063H40.5365V31.5525H36.2012V29.4063Z" fill="#FFDA45"/>
<path d="M36.2012 44.5404H40.5365V46.6866H36.2012V44.5404Z" fill="#FFDA45"/>
<path d="M38.3696 41.4267C38.1029 41.4267 37.8867 41.2106 37.8867 40.9438V35.149C37.8867 34.8823 38.1029 34.6661 38.3696 34.6661C38.6363 34.6661 38.8525 34.8823 38.8525 35.149V40.9438C38.8525 41.2105 38.6363 41.4267 38.3696 41.4267Z" fill="white"/>
</g>
<path d="M28.7757 70.7286H25.2837L24.6837 72.4326H23.2557L26.2437 64.0806H27.8277L30.8157 72.4326H29.3757L28.7757 70.7286ZM28.3917 69.6126L27.0357 65.7366L25.6677 69.6126H28.3917ZM33.4828 66.7926C33.7148 66.4886 34.0308 66.2326 34.4308 66.0246C34.8308 65.8166 35.2828 65.7126 35.7868 65.7126C36.3628 65.7126 36.8868 65.8566 37.3588 66.1446C37.8388 66.4246 38.2148 66.8206 38.4868 67.3326C38.7588 67.8446 38.8948 68.4326 38.8948 69.0966C38.8948 69.7606 38.7588 70.3566 38.4868 70.8846C38.2148 71.4046 37.8388 71.8126 37.3588 72.1086C36.8868 72.3966 36.3628 72.5406 35.7868 72.5406C35.2828 72.5406 34.8348 72.4406 34.4428 72.2406C34.0508 72.0326 33.7308 71.7766 33.4828 71.4726V75.5766H32.1148V65.8206H33.4828V66.7926ZM37.5028 69.0966C37.5028 68.6406 37.4068 68.2486 37.2148 67.9206C37.0308 67.5846 36.7828 67.3326 36.4708 67.1646C36.1668 66.9886 35.8388 66.9006 35.4868 66.9006C35.1428 66.9006 34.8148 66.9886 34.5028 67.1646C34.1988 67.3406 33.9508 67.5966 33.7588 67.9326C33.5748 68.2686 33.4828 68.6646 33.4828 69.1206C33.4828 69.5766 33.5748 69.9766 33.7588 70.3206C33.9508 70.6566 34.1988 70.9126 34.5028 71.0886C34.8148 71.2646 35.1428 71.3526 35.4868 71.3526C35.8388 71.3526 36.1668 71.2646 36.4708 71.0886C36.7828 70.9046 37.0308 70.6406 37.2148 70.2966C37.4068 69.9526 37.5028 69.5526 37.5028 69.0966ZM41.6157 66.7926C41.8477 66.4886 42.1637 66.2326 42.5637 66.0246C42.9637 65.8166 43.4157 65.7126 43.9197 65.7126C44.4957 65.7126 45.0197 65.8566 45.4917 66.1446C45.9717 66.4246 46.3477 66.8206 46.6197 67.3326C46.8917 67.8446 47.0277 68.4326 47.0277 69.0966C47.0277 69.7606 46.8917 70.3566 46.6197 70.8846C46.3477 71.4046 45.9717 71.8126 45.4917 72.1086C45.0197 72.3966 44.4957 72.5406 43.9197 72.5406C43.4157 72.5406 42.9677 72.4406 42.5757 72.2406C42.1837 72.0326 41.8637 71.7766 41.6157 71.4726V75.5766H40.2477V65.8206H41.6157V66.7926ZM45.6357 69.0966C45.6357 68.6406 45.5397 68.2486 45.3477 67.9206C45.1637 67.5846 44.9157 67.3326 44.6037 67.1646C44.2997 66.9886 43.9717 66.9006 43.6197 66.9006C43.2757 66.9006 42.9477 66.9886 42.6357 67.1646C42.3317 67.3406 42.0837 67.5966 41.8917 67.9326C41.7077 68.2686 41.6157 68.6646 41.6157 69.1206C41.6157 69.5766 41.7077 69.9766 41.8917 70.3206C42.0837 70.6566 42.3317 70.9126 42.6357 71.0886C42.9477 71.2646 43.2757 71.3526 43.6197 71.3526C43.9717 71.3526 44.2997 71.2646 44.6037 71.0886C44.9157 70.9046 45.1637 70.6406 45.3477 70.2966C45.5397 69.9526 45.6357 69.5526 45.6357 69.0966ZM50.7805 72.5406C50.2605 72.5406 49.7925 72.4486 49.3765 72.2646C48.9685 72.0726 48.6445 71.8166 48.4045 71.4966C48.1645 71.1686 48.0365 70.8046 48.0205 70.4046H49.4365C49.4605 70.6846 49.5925 70.9206 49.8325 71.1126C50.0805 71.2966 50.3885 71.3886 50.7565 71.3886C51.1405 71.3886 51.4365 71.3166 51.6445 71.1726C51.8605 71.0206 51.9685 70.8286 51.9685 70.5966C51.9685 70.3486 51.8485 70.1646 51.6085 70.0446C51.3765 69.9246 51.0045 69.7926 50.4925 69.6486C49.9965 69.5126 49.5925 69.3806 49.2805 69.2526C48.9685 69.1246 48.6965 68.9286 48.4645 68.6646C48.2405 68.4006 48.1285 68.0526 48.1285 67.6206C48.1285 67.2686 48.2325 66.9486 48.4405 66.6606C48.6485 66.3646 48.9445 66.1326 49.3285 65.9646C49.7205 65.7966 50.1685 65.7126 50.6725 65.7126C51.4245 65.7126 52.0285 65.9046 52.4845 66.2886C52.9485 66.6646 53.1965 67.1806 53.2285 67.8366H51.8605C51.8365 67.5406 51.7165 67.3046 51.5005 67.1286C51.2845 66.9526 50.9925 66.8646 50.6245 66.8646C50.2645 66.8646 49.9885 66.9326 49.7965 67.0686C49.6045 67.2046 49.5085 67.3846 49.5085 67.6086C49.5085 67.7846 49.5725 67.9326 49.7005 68.0526C49.8285 68.1726 49.9845 68.2686 50.1685 68.3406C50.3525 68.4046 50.6245 68.4886 50.9845 68.5926C51.4645 68.7206 51.8565 68.8526 52.1605 68.9886C52.4725 69.1166 52.7405 69.3086 52.9645 69.5646C53.1885 69.8206 53.3045 70.1606 53.3125 70.5846C53.3125 70.9606 53.2085 71.2966 53.0005 71.5926C52.7925 71.8886 52.4965 72.1206 52.1125 72.2886C51.7365 72.4566 51.2925 72.5406 50.7805 72.5406Z" fill="#5D646F"/>
<defs>
<clipPath id="clip0_0_152">
<rect width="32" height="32" fill="white" transform="translate(22.3691 16.9326)"/>
</clipPath>
</defs>
</svg>
