<svg width="25" height="24" viewBox="0 0 25 24" fill="none" xmlns="http://www.w3.org/2000/svg">
<g clip-path="url(#clip0_0_418)">
<path d="M21.354 3.05699C20.8429 2.62964 20.244 2.32006 19.5998 2.15021C18.9557 1.98037 18.282 1.95443 17.6267 2.07424L14.1521 2.70516C13.3499 2.85248 12.6205 3.2652 12.0811 3.877C11.5403 3.26414 10.8089 2.85133 10.0047 2.70516L6.53558 2.07424C5.88026 1.95433 5.20659 1.97992 4.56225 2.14922C3.91792 2.31852 3.31868 2.62738 2.80694 3.05394C2.29521 3.48051 1.88349 4.01434 1.60094 4.61765C1.31839 5.22097 1.1719 5.87902 1.17186 6.54522C0.839412 9.50727 0.811459 12.4956 1.08844 15.4634L1.17186 16.3572C1.17191 17.4216 1.54548 18.4522 2.22745 19.2694C2.90942 20.0866 3.85655 20.6386 4.90373 20.8291L10.6184 21.8682C11.5856 22.0439 12.5766 22.0439 13.5439 21.8682L19.263 20.8291C20.3094 20.6376 21.2555 20.0852 21.9365 19.2681C22.6176 18.451 22.9905 17.4209 22.9904 16.3572C23.3226 13.1274 23.3259 9.87225 23.0001 6.64181L22.9904 6.54522C22.9908 5.87925 22.8444 5.22138 22.5615 4.61846C22.2787 4.01553 21.8664 3.48239 21.354 3.05699ZM11.172 20.1163C11.0956 20.1054 11.0193 20.0927 10.9429 20.0791L5.22919 19.0409C4.60079 18.9265 4.03244 18.5953 3.62325 18.1048C3.21406 17.6144 2.98997 16.9959 2.99007 16.3572L2.90665 15.4634C2.62967 12.4956 2.65762 9.50727 2.99007 6.54522C2.99007 5.82189 3.27741 5.12819 3.78888 4.61672C4.30035 4.10525 4.99405 3.81791 5.71738 3.81791C5.88201 3.8183 6.04629 3.83321 6.2083 3.86245L9.68108 4.49883C10.0989 4.57528 10.4768 4.79562 10.7491 5.1216C11.0215 5.44758 11.1711 5.85863 11.172 6.2834V20.1163ZM21.1722 16.3572C21.1723 16.9959 20.9482 17.6144 20.539 18.1048C20.1298 18.5953 19.5615 18.9265 18.933 19.0409L13.2193 20.0791C13.143 20.0927 13.0666 20.1054 12.9902 20.1163V6.2834C12.9902 5.85759 13.1395 5.44525 13.4123 5.1183C13.6851 4.79134 14.064 4.5705 14.483 4.49428L17.9567 3.85791C18.3501 3.78633 18.7544 3.80214 19.141 3.90419C19.5276 4.00625 19.887 4.19206 20.1938 4.44847C20.5006 4.70488 20.7473 5.02561 20.9164 5.38795C21.0854 5.75029 21.1728 6.14538 21.1722 6.54522L21.1819 6.64181C21.5077 9.87225 21.5044 13.1274 21.1722 16.3572Z" fill="#101010"/>
</g>
<defs>
<clipPath id="clip0_0_418">
<rect width="24" height="24" fill="white" transform="translate(0.171875)"/>
</clipPath>
</defs>
</svg>
