<svg width="77" height="87" viewBox="0 0 77 87" fill="none" xmlns="http://www.w3.org/2000/svg">
<rect x="0.119141" y="0.432617" width="76.5" height="86" rx="10" fill="white"/>
<g clip-path="url(#clip0_0_132)">
<path d="M38.3691 16.9326L30.3691 32.9326L38.3691 48.9326C47.2057 48.9326 54.3691 41.7692 54.3691 32.9326C54.3691 24.0961 47.2057 16.9326 38.3691 16.9326Z" fill="#14CFFF"/>
<path d="M22.3691 32.9326C22.3691 41.7692 29.5326 48.9326 38.3691 48.9326V16.9326C29.5326 16.9326 22.3691 24.0961 22.3691 32.9326Z" fill="#14CFFF"/>
<path d="M38.3691 20.6826L32.2441 32.9326L38.3691 45.1826C45.1346 45.1826 50.6191 39.6981 50.6191 32.9326C50.6191 26.1671 45.1346 20.6826 38.3691 20.6826Z" fill="#E4F5FF"/>
<path d="M26.1191 32.9326C26.1191 39.6981 31.6036 45.1826 38.3691 45.1826V20.6826C31.6036 20.6826 26.1191 26.1671 26.1191 32.9326Z" fill="#E4F5FF"/>
<path d="M37.4473 37.1512L37.4473 33.4013L36.5634 32.5174L35.5723 35.2763L35.5723 37.1512H37.4473Z" fill="#340D66"/>
<path d="M37.4472 26.8701L35.5722 26.8701L35.5722 35.2763L37.4472 33.4013L37.4472 26.8701Z" fill="#373E9F"/>
<path d="M43.7599 35.6757L39.1974 35.6756L36.4385 36.6667L37.3224 37.5506L43.7599 37.5506L43.7599 35.6757Z" fill="#373E9F"/>
<path d="M35.5694 35.6756L35.5694 37.5506L37.4443 37.5506L39.3193 35.6756L35.5694 35.6756Z" fill="#3857BC"/>
</g>
<path d="M28.4672 71.3286H31.2872V72.4326H27.0992V64.0926H28.4672V71.3286ZM31.9753 69.0966C31.9753 68.4326 32.1113 67.8446 32.3833 67.3326C32.6633 66.8206 33.0393 66.4246 33.5113 66.1446C33.9913 65.8566 34.5193 65.7126 35.0953 65.7126C35.6153 65.7126 36.0673 65.8166 36.4513 66.0246C36.8433 66.2246 37.1553 66.4766 37.3873 66.7806V65.8206H38.7673V72.4326H37.3873V71.4486C37.1553 71.7606 36.8393 72.0206 36.4393 72.2286C36.0393 72.4366 35.5833 72.5406 35.0713 72.5406C34.5033 72.5406 33.9833 72.3966 33.5113 72.1086C33.0393 71.8126 32.6633 71.4046 32.3833 70.8846C32.1113 70.3566 31.9753 69.7606 31.9753 69.0966ZM37.3873 69.1206C37.3873 68.6646 37.2913 68.2686 37.0993 67.9326C36.9153 67.5966 36.6713 67.3406 36.3673 67.1646C36.0633 66.9886 35.7353 66.9006 35.3833 66.9006C35.0313 66.9006 34.7033 66.9886 34.3993 67.1646C34.0953 67.3326 33.8473 67.5846 33.6553 67.9206C33.4713 68.2486 33.3793 68.6406 33.3793 69.0966C33.3793 69.5526 33.4713 69.9526 33.6553 70.2966C33.8473 70.6406 34.0953 70.9046 34.3993 71.0886C34.7113 71.2646 35.0393 71.3526 35.3833 71.3526C35.7353 71.3526 36.0633 71.2646 36.3673 71.0886C36.6713 70.9126 36.9153 70.6566 37.0993 70.3206C37.2913 69.9766 37.3873 69.5766 37.3873 69.1206ZM42.9641 72.5406C42.4441 72.5406 41.9761 72.4486 41.5601 72.2646C41.1521 72.0726 40.8281 71.8166 40.5881 71.4966C40.3481 71.1686 40.2201 70.8046 40.2041 70.4046H41.6201C41.6441 70.6846 41.7761 70.9206 42.0161 71.1126C42.2641 71.2966 42.5721 71.3886 42.9401 71.3886C43.3241 71.3886 43.6201 71.3166 43.8281 71.1726C44.0441 71.0206 44.1521 70.8286 44.1521 70.5966C44.1521 70.3486 44.0321 70.1646 43.7921 70.0446C43.5601 69.9246 43.1881 69.7926 42.6761 69.6486C42.1801 69.5126 41.7761 69.3806 41.4641 69.2526C41.1521 69.1246 40.8801 68.9286 40.6481 68.6646C40.4241 68.4006 40.3121 68.0526 40.3121 67.6206C40.3121 67.2686 40.4161 66.9486 40.6241 66.6606C40.8321 66.3646 41.1281 66.1326 41.5121 65.9646C41.9041 65.7966 42.3521 65.7126 42.8561 65.7126C43.6081 65.7126 44.2121 65.9046 44.6681 66.2886C45.1321 66.6646 45.3801 67.1806 45.4121 67.8366H44.0441C44.0201 67.5406 43.9001 67.3046 43.6841 67.1286C43.4681 66.9526 43.1761 66.8646 42.8081 66.8646C42.4481 66.8646 42.1721 66.9326 41.9801 67.0686C41.7881 67.2046 41.6921 67.3846 41.6921 67.6086C41.6921 67.7846 41.7561 67.9326 41.8841 68.0526C42.0121 68.1726 42.1681 68.2686 42.3521 68.3406C42.5361 68.4046 42.8081 68.4886 43.1681 68.5926C43.6481 68.7206 44.0401 68.8526 44.3441 68.9886C44.6561 69.1166 44.9241 69.3086 45.1481 69.5646C45.3721 69.8206 45.4881 70.1606 45.4961 70.5846C45.4961 70.9606 45.3921 71.2966 45.1841 71.5926C44.9761 71.8886 44.6801 72.1206 44.2961 72.2886C43.9201 72.4566 43.4761 72.5406 42.9641 72.5406ZM48.5702 66.9366V70.5966C48.5702 70.8446 48.6262 71.0246 48.7382 71.1366C48.8582 71.2406 49.0582 71.2926 49.3382 71.2926H50.1782V72.4326H49.0982C48.4822 72.4326 48.0102 72.2886 47.6822 72.0006C47.3542 71.7126 47.1902 71.2446 47.1902 70.5966V66.9366H46.4102V65.8206H47.1902V64.1766H48.5702V65.8206H50.1782V66.9366H48.5702Z" fill="#5D646F"/>
<defs>
<clipPath id="clip0_0_132">
<rect width="32" height="32" fill="white" transform="translate(22.3691 16.9326)"/>
</clipPath>
</defs>
</svg>
