<svg width="24" height="24" viewBox="0 0 24 24" fill="none" xmlns="http://www.w3.org/2000/svg">
<g id="Frame">
<path id="Vector" d="M12 6.74994C11.8011 6.74994 11.6103 6.67092 11.4697 6.53027C11.329 6.38962 11.25 6.19885 11.25 5.99994C11.25 5.80103 11.329 5.61026 11.4697 5.46961C11.6103 5.32896 11.8011 5.24994 12 5.24994C12.1989 5.24994 12.3897 5.32896 12.5303 5.46961C12.671 5.61026 12.75 5.80103 12.75 5.99994C12.75 6.19885 12.671 6.38962 12.5303 6.53027C12.3897 6.67092 12.1989 6.74994 12 6.74994ZM12 12.7499C11.8011 12.7499 11.6103 12.6709 11.4697 12.5303C11.329 12.3896 11.25 12.1989 11.25 11.9999C11.25 11.801 11.329 11.6103 11.4697 11.4696C11.6103 11.329 11.8011 11.2499 12 11.2499C12.1989 11.2499 12.3897 11.329 12.5303 11.4696C12.671 11.6103 12.75 11.801 12.75 11.9999C12.75 12.1989 12.671 12.3896 12.5303 12.5303C12.3897 12.6709 12.1989 12.7499 12 12.7499ZM12 18.7499C11.8011 18.7499 11.6103 18.6709 11.4697 18.5303C11.329 18.3896 11.25 18.1989 11.25 17.9999C11.25 17.801 11.329 17.6103 11.4697 17.4696C11.6103 17.329 11.8011 17.2499 12 17.2499C12.1989 17.2499 12.3897 17.329 12.5303 17.4696C12.671 17.6103 12.75 17.801 12.75 17.9999C12.75 18.1989 12.671 18.3896 12.5303 18.5303C12.3897 18.6709 12.1989 18.7499 12 18.7499Z" stroke="white" stroke-width="1.5" stroke-linecap="round" stroke-linejoin="round"/>
</g>
</svg>
