<svg width="78" height="87" viewBox="0 0 78 87" fill="none" xmlns="http://www.w3.org/2000/svg">
<rect x="0.619141" y="0.432617" width="76.5" height="86" rx="10" fill="white"/>
<g clip-path="url(#clip0_1_280)">
<path d="M23.3691 27.4326L30.5991 33.1626L30.3691 45.9326L37.5991 39.1626L42.8691 44.4326L54.3691 19.9326L23.3691 27.4326Z" fill="#48ACFF"/>
<path d="M54.3691 19.9326L34.6391 36.2026L30.3691 45.9326L30.5991 33.1626L54.3691 19.9326Z" fill="#337FEF"/>
<path d="M37.5991 39.1626L30.3691 45.9326L34.6391 36.2026L37.5991 39.1626Z" fill="#185BD1"/>
</g>
<path d="M28.5669 66.4926C28.3509 66.0766 28.0509 65.7646 27.6669 65.5566C27.2829 65.3406 26.8389 65.2326 26.3349 65.2326C25.7829 65.2326 25.2909 65.3566 24.8589 65.6046C24.4269 65.8526 24.0869 66.2046 23.8389 66.6606C23.5989 67.1166 23.4789 67.6446 23.4789 68.2446C23.4789 68.8446 23.5989 69.3766 23.8389 69.8406C24.0869 70.2966 24.4269 70.6486 24.8589 70.8966C25.2909 71.1446 25.7829 71.2686 26.3349 71.2686C27.0789 71.2686 27.6829 71.0606 28.1469 70.6446C28.6109 70.2286 28.8949 69.6646 28.9989 68.9526H25.8669V67.8606H30.4629V68.9286C30.3749 69.5766 30.1429 70.1726 29.7669 70.7166C29.3989 71.2606 28.9149 71.6966 28.3149 72.0246C27.7229 72.3446 27.0629 72.5046 26.3349 72.5046C25.5509 72.5046 24.8349 72.3246 24.1869 71.9646C23.5389 71.5966 23.0229 71.0886 22.6389 70.4406C22.2629 69.7926 22.0749 69.0606 22.0749 68.2446C22.0749 67.4286 22.2629 66.6966 22.6389 66.0486C23.0229 65.4006 23.5389 64.8966 24.1869 64.5366C24.8429 64.1686 25.5589 63.9846 26.3349 63.9846C27.2229 63.9846 28.0109 64.2046 28.6989 64.6446C29.3949 65.0766 29.8989 65.6926 30.2109 66.4926H28.5669ZM34.6801 72.5406C34.0561 72.5406 33.4921 72.4006 32.9881 72.1206C32.4841 71.8326 32.0881 71.4326 31.8001 70.9206C31.5121 70.4006 31.3681 69.8006 31.3681 69.1206C31.3681 68.4486 31.5161 67.8526 31.8121 67.3326C32.1081 66.8126 32.5121 66.4126 33.0241 66.1326C33.5361 65.8526 34.1081 65.7126 34.7401 65.7126C35.3721 65.7126 35.9441 65.8526 36.4561 66.1326C36.9681 66.4126 37.3721 66.8126 37.6681 67.3326C37.9641 67.8526 38.1121 68.4486 38.1121 69.1206C38.1121 69.7926 37.9601 70.3886 37.6561 70.9086C37.3521 71.4286 36.9361 71.8326 36.4081 72.1206C35.8881 72.4006 35.3121 72.5406 34.6801 72.5406ZM34.6801 71.3526C35.0321 71.3526 35.3601 71.2686 35.6641 71.1006C35.9761 70.9326 36.2281 70.6806 36.4201 70.3446C36.6121 70.0086 36.7081 69.6006 36.7081 69.1206C36.7081 68.6406 36.6161 68.2366 36.4321 67.9086C36.2481 67.5726 36.0041 67.3206 35.7001 67.1526C35.3961 66.9846 35.0681 66.9006 34.7161 66.9006C34.3641 66.9006 34.0361 66.9846 33.7321 67.1526C33.4361 67.3206 33.2001 67.5726 33.0241 67.9086C32.8481 68.2366 32.7601 68.6406 32.7601 69.1206C32.7601 69.8326 32.9401 70.3846 33.3001 70.7766C33.6681 71.1606 34.1281 71.3526 34.6801 71.3526ZM47.9696 64.0926V65.2086H45.7496V72.4326H44.3816V65.2086H42.1496V64.0926H47.9696ZM52.2231 72.5406C51.5991 72.5406 51.0351 72.4006 50.5311 72.1206C50.0271 71.8326 49.6311 71.4326 49.3431 70.9206C49.0551 70.4006 48.9111 69.8006 48.9111 69.1206C48.9111 68.4486 49.0591 67.8526 49.3551 67.3326C49.6511 66.8126 50.0551 66.4126 50.5671 66.1326C51.0791 65.8526 51.6511 65.7126 52.2831 65.7126C52.9151 65.7126 53.4871 65.8526 53.9991 66.1326C54.5111 66.4126 54.9151 66.8126 55.2111 67.3326C55.5071 67.8526 55.6551 68.4486 55.6551 69.1206C55.6551 69.7926 55.5031 70.3886 55.1991 70.9086C54.8951 71.4286 54.4791 71.8326 53.9511 72.1206C53.4311 72.4006 52.8551 72.5406 52.2231 72.5406ZM52.2231 71.3526C52.5751 71.3526 52.9031 71.2686 53.2071 71.1006C53.5191 70.9326 53.7711 70.6806 53.9631 70.3446C54.1551 70.0086 54.2511 69.6006 54.2511 69.1206C54.2511 68.6406 54.1591 68.2366 53.9751 67.9086C53.7911 67.5726 53.5471 67.3206 53.2431 67.1526C52.9391 66.9846 52.6111 66.9006 52.2591 66.9006C51.9071 66.9006 51.5791 66.9846 51.2751 67.1526C50.9791 67.3206 50.7431 67.5726 50.5671 67.9086C50.3911 68.2366 50.3031 68.6406 50.3031 69.1206C50.3031 69.8326 50.4831 70.3846 50.8431 70.7766C51.2111 71.1606 51.6711 71.3526 52.2231 71.3526Z" fill="#5D646F"/>
<defs>
<clipPath id="clip0_1_280">
<rect width="32" height="32" fill="white" transform="translate(22.8691 16.9326)"/>
</clipPath>
</defs>
</svg>
