<svg width="78" height="87" viewBox="0 0 78 87" fill="none" xmlns="http://www.w3.org/2000/svg">
<rect x="0.619141" y="0.432617" width="76.5" height="86" rx="10" fill="white"/>
<g clip-path="url(#clip0_0_198)">
<path d="M54.8627 34.3029C54.8247 33.9518 54.5973 33.6604 54.2694 33.5425C52.4887 32.9021 50.5105 33.0485 48.8377 33.9471L42.6951 37.5305L42.6705 37.5482C42.2433 37.9223 41.7129 38.1283 41.1769 38.1283H35.9748V36.8591H41.1769C41.9414 36.8591 42.3642 35.9394 42.3642 35.3036C42.3642 34.4707 41.8468 33.7731 41.2066 33.7486L35.7377 33.6874C33.7408 33.6655 32.5339 32.5159 30.5112 33.5524C28.5378 34.5639 27.6701 36.8526 27.4512 37.53L27.4336 37.5844L30.0884 44.245H40.0203L54.4448 35.1757C54.7408 34.9896 54.9009 34.6551 54.8627 34.3029Z" fill="#F9D298"/>
<path d="M31.0946 45.7855L28.2278 47.3496C27.6754 47.6509 26.9833 47.4336 26.7023 46.8706L22.9863 39.4256C22.7194 38.8909 22.9235 38.2409 23.4481 37.9548L26.3149 36.3907C26.8673 36.0894 27.5595 36.3067 27.8404 36.8697L31.5565 44.3147C31.8233 44.8493 31.6192 45.4994 31.0946 45.7855Z" fill="#4C97E3"/>
<path d="M42.9635 20.7779C40.0842 14.2811 28.9152 22.0804 42.9168 31.1117L42.9095 31.0787C57.5897 22.0474 45.3661 14.4858 42.9635 20.7779Z" fill="#FF2459"/>
</g>
<path d="M18.564 72.5166C18.004 72.5166 17.5 72.4206 17.052 72.2286C16.604 72.0286 16.252 71.7486 15.996 71.3886C15.74 71.0286 15.612 70.6086 15.612 70.1286H17.076C17.108 70.4886 17.248 70.7846 17.496 71.0166C17.752 71.2486 18.108 71.3646 18.564 71.3646C19.036 71.3646 19.404 71.2526 19.668 71.0286C19.932 70.7966 20.064 70.5006 20.064 70.1406C20.064 69.8606 19.98 69.6326 19.812 69.4566C19.652 69.2806 19.448 69.1446 19.2 69.0486C18.96 68.9526 18.624 68.8486 18.192 68.7366C17.648 68.5926 17.204 68.4486 16.86 68.3046C16.524 68.1526 16.236 67.9206 15.996 67.6086C15.756 67.2966 15.636 66.8806 15.636 66.3606C15.636 65.8806 15.756 65.4606 15.996 65.1006C16.236 64.7406 16.572 64.4646 17.004 64.2726C17.436 64.0806 17.936 63.9846 18.504 63.9846C19.312 63.9846 19.972 64.1886 20.484 64.5966C21.004 64.9966 21.292 65.5486 21.348 66.2526H19.836C19.812 65.9486 19.668 65.6886 19.404 65.4726C19.14 65.2566 18.792 65.1486 18.36 65.1486C17.968 65.1486 17.648 65.2486 17.4 65.4486C17.152 65.6486 17.028 65.9366 17.028 66.3126C17.028 66.5686 17.104 66.7806 17.256 66.9486C17.416 67.1086 17.616 67.2366 17.856 67.3326C18.096 67.4286 18.424 67.5326 18.84 67.6446C19.392 67.7966 19.84 67.9486 20.184 68.1006C20.536 68.2526 20.832 68.4886 21.072 68.8086C21.32 69.1206 21.444 69.5406 21.444 70.0686C21.444 70.4926 21.328 70.8926 21.096 71.2686C20.872 71.6446 20.54 71.9486 20.1 72.1806C19.668 72.4046 19.156 72.5166 18.564 72.5166ZM22.6022 69.0966C22.6022 68.4326 22.7382 67.8446 23.0102 67.3326C23.2902 66.8206 23.6662 66.4246 24.1382 66.1446C24.6182 65.8566 25.1462 65.7126 25.7222 65.7126C26.2422 65.7126 26.6942 65.8166 27.0782 66.0246C27.4702 66.2246 27.7822 66.4766 28.0142 66.7806V65.8206H29.3942V72.4326H28.0142V71.4486C27.7822 71.7606 27.4662 72.0206 27.0662 72.2286C26.6662 72.4366 26.2102 72.5406 25.6982 72.5406C25.1302 72.5406 24.6102 72.3966 24.1382 72.1086C23.6662 71.8126 23.2902 71.4046 23.0102 70.8846C22.7382 70.3566 22.6022 69.7606 22.6022 69.0966ZM28.0142 69.1206C28.0142 68.6646 27.9182 68.2686 27.7262 67.9326C27.5422 67.5966 27.2982 67.3406 26.9942 67.1646C26.6902 66.9886 26.3622 66.9006 26.0102 66.9006C25.6582 66.9006 25.3302 66.9886 25.0262 67.1646C24.7222 67.3326 24.4742 67.5846 24.2822 67.9206C24.0982 68.2486 24.0062 68.6406 24.0062 69.0966C24.0062 69.5526 24.0982 69.9526 24.2822 70.2966C24.4742 70.6406 24.7222 70.9046 25.0262 71.0886C25.3382 71.2646 25.6662 71.3526 26.0102 71.3526C26.3622 71.3526 26.6902 71.2646 26.9942 71.0886C27.2982 70.9126 27.5422 70.6566 27.7262 70.3206C27.9182 69.9766 28.0142 69.5766 28.0142 69.1206ZM30.735 69.0966C30.735 68.4326 30.871 67.8446 31.143 67.3326C31.423 66.8206 31.799 66.4246 32.271 66.1446C32.751 65.8566 33.283 65.7126 33.867 65.7126C34.299 65.7126 34.723 65.8086 35.139 66.0006C35.563 66.1846 35.899 66.4326 36.147 66.7446V63.5526H37.527V72.4326H36.147V71.4366C35.923 71.7566 35.611 72.0206 35.211 72.2286C34.819 72.4366 34.367 72.5406 33.855 72.5406C33.279 72.5406 32.751 72.3966 32.271 72.1086C31.799 71.8126 31.423 71.4046 31.143 70.8846C30.871 70.3566 30.735 69.7606 30.735 69.0966ZM36.147 69.1206C36.147 68.6646 36.051 68.2686 35.859 67.9326C35.675 67.5966 35.431 67.3406 35.127 67.1646C34.823 66.9886 34.495 66.9006 34.143 66.9006C33.791 66.9006 33.463 66.9886 33.159 67.1646C32.855 67.3326 32.607 67.5846 32.415 67.9206C32.231 68.2486 32.139 68.6406 32.139 69.0966C32.139 69.5526 32.231 69.9526 32.415 70.2966C32.607 70.6406 32.855 70.9046 33.159 71.0886C33.471 71.2646 33.799 71.3526 34.143 71.3526C34.495 71.3526 34.823 71.2646 35.127 71.0886C35.431 70.9126 35.675 70.6566 35.859 70.3206C36.051 69.9766 36.147 69.5766 36.147 69.1206ZM38.8678 69.0966C38.8678 68.4326 39.0038 67.8446 39.2758 67.3326C39.5558 66.8206 39.9318 66.4246 40.4038 66.1446C40.8838 65.8566 41.4118 65.7126 41.9878 65.7126C42.5078 65.7126 42.9598 65.8166 43.3438 66.0246C43.7358 66.2246 44.0478 66.4766 44.2798 66.7806V65.8206H45.6598V72.4326H44.2798V71.4486C44.0478 71.7606 43.7318 72.0206 43.3318 72.2286C42.9318 72.4366 42.4758 72.5406 41.9638 72.5406C41.3958 72.5406 40.8758 72.3966 40.4038 72.1086C39.9318 71.8126 39.5558 71.4046 39.2758 70.8846C39.0038 70.3566 38.8678 69.7606 38.8678 69.0966ZM44.2798 69.1206C44.2798 68.6646 44.1838 68.2686 43.9918 67.9326C43.8078 67.5966 43.5638 67.3406 43.2598 67.1646C42.9558 66.9886 42.6278 66.9006 42.2758 66.9006C41.9238 66.9006 41.5958 66.9886 41.2918 67.1646C40.9878 67.3326 40.7398 67.5846 40.5478 67.9206C40.3638 68.2486 40.2718 68.6406 40.2718 69.0966C40.2718 69.5526 40.3638 69.9526 40.5478 70.2966C40.7398 70.6406 40.9878 70.9046 41.2918 71.0886C41.6038 71.2646 41.9318 71.3526 42.2758 71.3526C42.6278 71.3526 42.9558 71.2646 43.2598 71.0886C43.5638 70.9126 43.8078 70.6566 43.9918 70.3206C44.1838 69.9766 44.2798 69.5766 44.2798 69.1206ZM47.0006 69.0966C47.0006 68.4326 47.1366 67.8446 47.4086 67.3326C47.6886 66.8206 48.0646 66.4246 48.5366 66.1446C49.0166 65.8566 49.5486 65.7126 50.1326 65.7126C50.6446 65.7126 51.0966 65.8166 51.4886 66.0246C51.8886 66.2326 52.1966 66.4846 52.4126 66.7806V65.8206H53.7926V75.5766H52.4126V71.4726C52.1966 71.7686 51.8846 72.0206 51.4766 72.2286C51.0686 72.4366 50.6046 72.5406 50.0846 72.5406C49.5166 72.5406 48.9966 72.3966 48.5246 72.1086C48.0606 71.8126 47.6886 71.4046 47.4086 70.8846C47.1366 70.3566 47.0006 69.7606 47.0006 69.0966ZM52.4126 69.1206C52.4126 68.6646 52.3166 68.2686 52.1246 67.9326C51.9406 67.5966 51.6966 67.3406 51.3926 67.1646C51.0886 66.9886 50.7606 66.9006 50.4086 66.9006C50.0566 66.9006 49.7286 66.9886 49.4246 67.1646C49.1206 67.3326 48.8726 67.5846 48.6806 67.9206C48.4966 68.2486 48.4046 68.6406 48.4046 69.0966C48.4046 69.5526 48.4966 69.9526 48.6806 70.2966C48.8726 70.6406 49.1206 70.9046 49.4246 71.0886C49.7366 71.2646 50.0646 71.3526 50.4086 71.3526C50.7606 71.3526 51.0886 71.2646 51.3926 71.0886C51.6966 70.9126 51.9406 70.6566 52.1246 70.3206C52.3166 69.9766 52.4126 69.5766 52.4126 69.1206ZM55.1335 69.0966C55.1335 68.4326 55.2695 67.8446 55.5415 67.3326C55.8215 66.8206 56.1975 66.4246 56.6695 66.1446C57.1495 65.8566 57.6775 65.7126 58.2535 65.7126C58.7735 65.7126 59.2255 65.8166 59.6095 66.0246C60.0015 66.2246 60.3135 66.4766 60.5455 66.7806V65.8206H61.9255V72.4326H60.5455V71.4486C60.3135 71.7606 59.9975 72.0206 59.5975 72.2286C59.1975 72.4366 58.7415 72.5406 58.2295 72.5406C57.6615 72.5406 57.1415 72.3966 56.6695 72.1086C56.1975 71.8126 55.8215 71.4046 55.5415 70.8846C55.2695 70.3566 55.1335 69.7606 55.1335 69.0966ZM60.5455 69.1206C60.5455 68.6646 60.4495 68.2686 60.2575 67.9326C60.0735 67.5966 59.8295 67.3406 59.5255 67.1646C59.2215 66.9886 58.8935 66.9006 58.5415 66.9006C58.1895 66.9006 57.8615 66.9886 57.5575 67.1646C57.2535 67.3326 57.0055 67.5846 56.8135 67.9206C56.6295 68.2486 56.5375 68.6406 56.5375 69.0966C56.5375 69.5526 56.6295 69.9526 56.8135 70.2966C57.0055 70.6406 57.2535 70.9046 57.5575 71.0886C57.8695 71.2646 58.1975 71.3526 58.5415 71.3526C58.8935 71.3526 59.2215 71.2646 59.5255 71.0886C59.8295 70.9126 60.0735 70.6566 60.2575 70.3206C60.4495 69.9766 60.5455 69.5766 60.5455 69.1206Z" fill="#5D646F"/>
<defs>
<clipPath id="clip0_0_198">
<rect width="32" height="32" fill="white" transform="translate(22.8691 16.9326)"/>
</clipPath>
</defs>
</svg>
