<svg width="25" height="24" viewBox="0 0 25 24" fill="none" xmlns="http://www.w3.org/2000/svg">
<path d="M22.0562 15.2984C21.8996 17.0315 21.6478 18.4398 21.3415 19.6963C21.1373 20.9529 19.9122 22 18.5849 22H16.9513C16.0324 22 15.3177 21.267 15.3177 20.3246V16.0314C15.3177 14.9843 14.5009 14.1466 13.4799 14.1466H11.1316C10.1107 14.1466 9.29387 14.9843 9.29387 16.0314V20.3246C9.29387 21.267 8.57917 22 7.66028 22H5.7204C4.39311 22 3.27003 21.0576 2.96373 19.6963C2.65743 18.3351 2.39186 17.0327 2.24904 15.2984C2.06777 13.0974 2.24904 11.0052 2.35114 9.64398C2.35114 8.80628 2.86163 7.96859 3.57632 7.44503L10.7233 2.52356C11.1316 2.20942 11.6421 2 12.1526 2C12.6631 2 13.2757 2.20942 13.6841 2.52356L20.8311 7.44503C21.5457 7.96859 22.0562 8.80628 22.0562 9.64398C22.1583 11.0052 22.2549 13.0993 22.0562 15.2984Z" fill="#1AA483"/>
</svg>
