<svg width="25" height="24" viewBox="0 0 25 24" fill="none" xmlns="http://www.w3.org/2000/svg">
<path fill-rule="evenodd" clip-rule="evenodd" d="M12.1719 3.53846C10.647 3.53846 8.5994 3.70582 7.1673 3.8447C6.57304 3.90233 6.10928 4.3731 6.06328 4.96993C5.92087 6.81754 5.72026 9.81282 5.72026 12C5.72026 14.1872 5.92087 17.1825 6.06328 19.0301C6.10928 19.6269 6.57304 20.0977 7.1673 20.1553C8.5994 20.2942 10.647 20.4615 12.1719 20.4615C13.6967 20.4615 15.7443 20.2942 17.1765 20.1553C17.7707 20.0977 18.2345 19.6269 18.2805 19.0301C18.4229 17.1825 18.6235 14.1872 18.6235 12C18.6235 9.81282 18.4229 6.81754 18.2805 4.96993C18.2345 4.3731 17.7707 3.90233 17.1765 3.8447C15.7443 3.70582 13.6967 3.53846 12.1719 3.53846ZM7.01689 2.31351C8.45278 2.17427 10.5654 2 12.1719 2C13.7783 2 15.891 2.17427 17.3269 2.31351C18.6748 2.44423 19.7213 3.51605 19.8243 4.85245C19.9668 6.70071 20.1719 9.74813 20.1719 12C20.1719 14.2519 19.9668 17.2993 19.8243 19.1476C19.7213 20.484 18.6748 21.5558 17.3269 21.6865C15.891 21.8257 13.7783 22 12.1719 22C10.5654 22 8.45278 21.8257 7.01689 21.6865C5.66897 21.5558 4.62242 20.484 4.51942 19.1476C4.37696 17.2993 4.17188 14.2519 4.17188 12C4.17188 9.74813 4.37696 6.70071 4.51942 4.85245C4.62242 3.51605 5.66897 2.44423 7.01689 2.31351Z" fill="#101010"/>
<path fill-rule="evenodd" clip-rule="evenodd" d="M8.30091 14.0513C8.30091 14.4761 8.64753 14.8205 9.0751 14.8205H15.2686C15.6962 14.8205 16.0428 14.4761 16.0428 14.0513C16.0428 13.6264 15.6962 13.2821 15.2686 13.2821H9.0751C8.64753 13.2821 8.30091 13.6264 8.30091 14.0513Z" fill="#101010"/>
<path fill-rule="evenodd" clip-rule="evenodd" d="M8.30091 9.94872C8.30091 10.3736 8.64753 10.7179 9.0751 10.7179H12.1719C12.5995 10.7179 12.9461 10.3736 12.9461 9.94872C12.9461 9.52388 12.5995 9.17949 12.1719 9.17949H9.0751C8.64753 9.17949 8.30091 9.52388 8.30091 9.94872Z" fill="#101010"/>
</svg>
