<svg width="25" height="24" viewBox="0 0 25 24" fill="none" xmlns="http://www.w3.org/2000/svg">
<path fill-rule="evenodd" clip-rule="evenodd" d="M12.1719 3.53846C10.319 3.53846 8.81704 5.03085 8.81704 6.8718C8.81704 8.71274 10.319 10.2051 12.1719 10.2051C14.0247 10.2051 15.5267 8.71274 15.5267 6.8718C15.5267 5.03085 14.0247 3.53846 12.1719 3.53846ZM7.26865 6.8718C7.26865 4.18118 9.4639 2 12.1719 2C14.8799 2 17.0751 4.18118 17.0751 6.8718C17.0751 9.56241 14.8799 11.7436 12.1719 11.7436C9.4639 11.7436 7.26865 9.56241 7.26865 6.8718Z" fill="#101010"/>
<path fill-rule="evenodd" clip-rule="evenodd" d="M9.63805 15.3333C7.47432 15.3333 5.72026 17.0761 5.72026 19.226C5.72026 19.3389 5.74102 19.4186 5.76279 19.465C5.78117 19.5041 5.79693 19.5153 5.81008 19.5224C6.41175 19.8477 8.09869 20.4615 12.1719 20.4615C16.2451 20.4615 17.932 19.8477 18.5337 19.5224C18.5468 19.5153 18.5626 19.5041 18.581 19.465C18.6027 19.4186 18.6235 19.3389 18.6235 19.226C18.6235 17.0761 16.8694 15.3333 14.7057 15.3333H9.63805ZM4.17188 19.226C4.17188 16.2265 6.61917 13.7949 9.63805 13.7949H14.7057C17.7246 13.7949 20.1719 16.2265 20.1719 19.226C20.1719 19.7766 19.9712 20.4966 19.2738 20.8737C18.3498 21.3733 16.3677 22 12.1719 22C7.97602 22 5.99393 21.3733 5.06999 20.8737C4.37251 20.4966 4.17188 19.7766 4.17188 19.226Z" fill="#101010"/>
</svg>
