<svg width="25" height="24" viewBox="0 0 25 24" fill="none" xmlns="http://www.w3.org/2000/svg">
<path fill-rule="evenodd" clip-rule="evenodd" d="M7.02853 2.30447C8.46408 2.16896 10.57 2 12.1719 2C13.7737 2 15.8797 2.16896 17.3152 2.30447C18.6695 2.4323 19.7209 3.51015 19.8217 4.85178C19.9642 6.74918 20.1719 9.90785 20.1719 12.2367C20.1719 14.022 20.05 16.2915 19.9293 18.1035C19.8688 19.0119 19.8084 19.8097 19.763 20.3806C19.7403 20.6661 19.7214 20.8949 19.7082 21.0526L19.6927 21.234L19.6873 21.2966L19.6872 21.2976C19.6872 21.2977 19.6872 21.2977 18.916 21.2308L19.6872 21.2976C19.6646 21.5553 19.5131 21.7845 19.284 21.9075C19.055 22.0305 18.7791 22.0309 18.5497 21.9085L12.2939 18.5713C12.2177 18.5307 12.126 18.5307 12.0498 18.5713L5.794 21.9085C5.56464 22.0309 5.28874 22.0305 5.05972 21.9075C4.83069 21.7845 4.6792 21.5554 4.65653 21.2977L5.42779 21.2308C4.65654 21.2977 4.65654 21.2978 4.65653 21.2977L4.651 21.234L4.63559 21.0526C4.62232 20.8949 4.60341 20.6661 4.58073 20.3806C4.53537 19.8097 4.4749 19.0119 4.41442 18.1035C4.29378 16.2915 4.17188 14.022 4.17188 12.2367C4.17188 9.90785 4.3795 6.74918 4.52208 4.85178C4.62289 3.51015 5.67424 2.4323 7.02853 2.30447ZM6.10367 19.9971L11.3174 17.2159C11.851 16.9312 12.4927 16.9312 13.0264 17.2159L18.2401 19.9971C18.2819 19.4598 18.3331 18.7707 18.3843 18.0019C18.5045 16.1962 18.6235 13.9687 18.6235 12.2367C18.6235 9.97099 18.4201 6.86326 18.2776 4.96632C18.2325 4.366 17.7656 3.89237 17.1688 3.83603C15.737 3.70088 13.6943 3.53846 12.1719 3.53846C10.6494 3.53846 8.60674 3.70088 7.17497 3.83603C6.57812 3.89237 6.11128 4.366 6.06617 4.96632C5.92363 6.86326 5.72026 9.97099 5.72026 12.2367C5.72026 13.9687 5.83921 16.1962 5.95943 18.0019C6.01062 18.7707 6.06181 19.4598 6.10367 19.9971Z" fill="#101010"/>
</svg>
