<svg width="23" height="22" viewBox="0 0 23 22" fill="none" xmlns="http://www.w3.org/2000/svg">
<g id="Search">
<path id="Ellipse 2 (Stroke)" fill-rule="evenodd" clip-rule="evenodd" d="M10.985 3.2436C6.96011 3.2436 3.69868 6.50244 3.69868 10.5207C3.69868 14.539 6.96011 17.7978 10.985 17.7978C12.993 17.7978 14.81 16.9875 16.1286 15.675C17.4531 14.3566 18.2713 12.5347 18.2713 10.5207C18.2713 6.50244 15.0099 3.2436 10.985 3.2436ZM2.28842 10.5207C2.28842 5.72204 6.18278 1.83334 10.985 1.83334C15.7872 1.83334 19.6816 5.72204 19.6816 10.5207C19.6816 12.6706 18.8991 14.6389 17.6044 16.1554L20.4149 18.9627C20.6905 19.2379 20.6907 19.6843 20.4155 19.9599C20.1403 20.2354 19.6938 20.2356 19.4183 19.9604L16.6051 17.1505C15.0897 18.4335 13.1273 19.2081 10.985 19.2081C6.18278 19.2081 2.28842 15.3194 2.28842 10.5207Z" fill="white" stroke="white" stroke-width="0.5" stroke-linecap="round" stroke-linejoin="round"/>
</g>
</svg>
